# xmcd CD database file
#
# Track frame offsets:
#	150
#	18536
#	40302
#	61243
#	79955
#	99168
#	116932
#	140016
#	166885
#	185553
#	209916
#	230279
#	249963
#	270418
#	291919
#	310731
#	334328
#
# Disc length: 4796 seconds
#
# Revision: 0
# Processed by: cddbd v1.5.1PL0 Copyright (c) Steve Scherf et al.
# Submitted via: CDex 1.51
#
DISCID=fa12ba11
DTITLE=Various Artist - Compilation Salsa
DYEAR=2002
DGENRE=Salsa
TTITLE0=Clave et congas
TTITLE1=Instrumental
TTITLE2=Eddie Torres n°1
TTITLE3=Eddie Torres n°2
TTITLE4=Eddie Torres n°3
TTITLE5=Eddie Torres n°4
TTITLE6=Acid
TTITLE7=Tito on timbales
TTITLE8=Boogaloo con Gale
TTITLE9=La yerba brava
TTITLE10=Yamuleman
TTITLE11=Quiereme
TTITLE12=El pito
TTITLE13=Micaela
TTITLE14=Ave Maria Lola
TTITLE15=Feo pero sabrosso
TTITLE16=Volare
EXTD=YEAR: 2002
EXTT0=
EXTT1=
EXTT2=
EXTT3=
EXTT4=
EXTT5=
EXTT6=
EXTT7=
EXTT8=
EXTT9=
EXTT10=
EXTT11=
EXTT12=
EXTT13=
EXTT14=
EXTT15=
EXTT16=
PLAYORDER=
